<svg version="1.1" id="Capa_1" xmlns="http://www.w3.org/2000/svg" xmlns:xlink="http://www.w3.org/1999/xlink" width="75px" height="75px" viewBox="0 0 391.648 391.648" xml:space="preserve">
	<defs>
		<linearGradient id="grad1" x1="0%" y1="0%" x2="100%" y2="0%">
			<stop offset="0%" style="stop-color:#22d3ee;stop-opacity:1" />
			<stop offset="100%" style="stop-color:#22d3ee;stop-opacity:1" />
		</linearGradient>
		<linearGradient id="grad2" x1="0%" y1="0%" x2="100%" y2="0%">
			<stop offset="0%" style="stop-color:#22d3ee;stop-opacity:1" />
			<stop offset="100%" style="stop-color:#a855f7;stop-opacity:1" />
		</linearGradient>
		<linearGradient id="grad3" x1="0%" y1="0%" x2="100%" y2="0%">
			<stop offset="0%" style="stop-color:#a855f7;stop-opacity:1" />
			<stop offset="100%" style="stop-color:#a855f7;stop-opacity:1" />
		</linearGradient>
	</defs>
	<g>
		<g>
			<path d="M43.069,260.824c-4.424-5.571-11.252-9.149-18.919-9.149C10.812,251.675,0,262.488,0,275.824
      c0,13.338,10.813,24.15,24.15,24.15c7.667,0,14.495-3.578,18.919-9.15h32.672v-30H43.069z" fill="url(#grad1)" />
			<path d="M43.069,180.825c-4.424-5.572-11.252-9.15-18.919-9.15C10.812,171.675,0,182.488,0,195.824
      c0,13.338,10.813,24.15,24.15,24.15c7.667,0,14.495-3.578,18.919-9.15h32.672v-30H43.069z" fill="url(#grad1)" />
			<path d="M43.069,100.825c-4.424-5.572-11.252-9.15-18.919-9.15C10.812,91.675,0,102.488,0,115.825s10.813,24.15,24.15,24.15
      c7.667,0,14.495-3.578,18.919-9.15h32.672v-30H43.069z" fill="url(#grad1)" />
			<path d="M348.579,290.824c4.424,5.572,11.252,9.15,18.919,9.15c13.338,0,24.15-10.812,24.15-24.15
      c0-13.336-10.813-24.149-24.15-24.149c-7.667,0-14.495,3.578-18.919,9.149h-32.672v30H348.579z" fill="url(#grad3)" />
			<path d="M348.579,210.824c4.424,5.572,11.252,9.15,18.919,9.15c13.338,0,24.15-10.812,24.15-24.15
      c0-13.336-10.813-24.149-24.15-24.149c-7.667,0-14.495,3.578-18.919,9.15h-32.672v30H348.579z" fill="url(#grad3)" />
			<path d="M348.579,130.825c4.424,5.572,11.252,9.15,18.919,9.15c13.338,0,24.15-10.813,24.15-24.15s-10.813-24.15-24.15-24.15
      c-7.667,0-14.495,3.578-18.919,9.15h-32.672v30H348.579z" fill="url(#grad3)" />
			<path d="M274.617,34.938H117.031c-8.284,0-15,6.716-15,15v291.773c0,8.285,6.716,15,15,15h157.587c8.284,0,15-6.715,15-15V49.938
      C289.617,41.654,282.902,34.938,274.617,34.938z M248.824,85.704c-6.352,0-11.5-5.148-11.5-11.5s5.148-11.5,11.5-11.5
      s11.5,5.148,11.5,11.5S255.176,85.704,248.824,85.704z" fill="url(#grad2)" />
		</g>
	</g>
</svg>